# xmcd CD database file
#
# Track frame offsets:
#	150
#	17110
#	40977
#	67699
#	91523
#	114323
#	131133
#	159547
#	178642
#	190025
#	211672
#
# Disc length: 3258 seconds
#
# Revision: 0
# Processed by: cddbd v1.4PL0 Copyright (c) Steve Scherf et al.
# Submitted via: CDex 1.50beta10
#
DISCID=820cb80b
DTITLE=Bob Dylan - Looking For Maurice Chevalier's Passport In America Disc One
DYEAR=2002
DGENRE=Blues
TTITLE0=Duncan And Brady
TTITLE1=You Ain't Going Nowhere
TTITLE2=I'll Be Your Baby Tonight
TTITLE3=John Brown
TTITLE4=Gotta Serve Somebody
TTITLE5=Searching For A Soldier's Grave
TTITLE6=Mississippi
TTITLE7=This World Can't Stand Long
TTITLE8=Somebody Touched Me
TTITLE9=Stone Walls And Steel Bars
TTITLE10=Friend Of The Devil
EXTD=YEAR: 2002
EXTT0=
EXTT1=
EXTT2=
EXTT3=
EXTT4=
EXTT5=
EXTT6=
EXTT7=
EXTT8=
EXTT9=
EXTT10=
PLAYORDER=
